<?xml version="1.0" encoding="utf-8"?>
<!-- Generator: Adobe Illustrator 21.0.0, SVG Export Plug-In . SVG Version: 6.00 Build 0)  -->
<svg version="1.1" xmlns="http://www.w3.org/2000/svg" xmlns:xlink="http://www.w3.org/1999/xlink" x="0px" y="0px"
	 viewBox="0 0 2054.5 480.1" enable-background="new 0 0 2054.5 480.1" xml:space="preserve">
<g id="Layer_49">
	<path fill="#067CAB" d="M67.5,237.5c-6.7-1.6-13-3.3-18.9-5.2c-0.1,0-0.2-0.1-0.3-0.1c2.1,40,7.9,75.6,17.8,106.5
		c0.5,0.2,1,0.3,1.5,0.5V237.5z"/>
</g>
<g id="Layer_48">
</g>
<g id="Layer_47">
	<path fill="#067CAB" d="M115.2,342.6v-97.4c-10.7-1.1-20.6-2.4-29.8-4v102.2c3.6,0.4,7.2,0.7,11,0.7
		C103,344,109.2,343.5,115.2,342.6z"/>
</g>
<g id="Layer_46">
	<path fill="#067CAB" d="M167.2,248.5c-12.2-0.4-23.6-1-34.2-1.7v91.6c12.9-4.4,24.2-11.1,34.2-19.6V248.5z"/>
</g>
<g id="Layer_45">
	<path fill="#067CAB" d="M127.8,364.5c-9.9,2.2-20.4,3.3-31.4,3.3c-6.8,0-13.5-0.6-20-1.7c26.3,58.9,71.8,97.3,142.2,114
		c107.7-18.9,161-112.2,167.5-250c-1.4,0.5-2.8,0.9-4.2,1.4c-32.2,10.2-75,15.6-136.4,17.1c-15.4,28.9-30.8,55.8-51.3,77.2
		c-18,18.8-38.2,31.2-61.2,37.3L127.8,364.5z"/>
</g>
<g id="Layer_44">
	<path fill="#067CAB" d="M217,249c-3.2,0-6.4,0-9.6,0c-7.7,0-15.1-0.1-22.3-0.2v51.5c12.1-14.7,22.7-32.3,33.1-51.3
		C217.8,249,217.4,249,217,249z"/>
</g>
<g id="Layer_43">
	<path fill="#212F60" d="M393.8,71.5c-3.2-2.7-6.6-5.4-10.2-7.9c-33.5-23.7-81.3-38.2-134.6-41c-8-0.4-14.8-6.9-23.4-15.1
		c-2.3-2.2-5.6-5.3-8.1-7.4c-2.4,2-5.5,4.9-7.7,6.9c-10.3,9.5-15.5,14-22.2,14.4C133.2,23.9,84.3,38.9,49.9,63.6
		C17.5,86.8-0.2,117.1,0,148.9c0.2,29.2,17.9,48.5,55.9,60.8c33.1,10.7,81.2,15.6,151.5,15.6c3.1,0,6.3,0,9.5,0
		c4.8,0,9.6-0.1,14.2-0.1C265.1,160.8,303.3,89.2,393.8,71.5z"/>
</g>
<g id="Layer_42">
	<path fill="#212F60" d="M306.3,149.9v71.5c13.4-1.3,25.5-2.9,36.4-4.9v-99.1C328.9,126.5,316.9,137.6,306.3,149.9z"/>
</g>
<g id="Layer_41">
	<path fill="#212F60" d="M360.6,212.7c4.9-1.2,9.6-2.5,14.1-3.9c7.7-2.4,14.3-5.1,20.1-7.9V95.7c-12.5,2.8-23.8,6.7-34.2,11.7V212.7
		z"/>
</g>
<g id="Layer_40">
	<path fill="#212F60" d="M288.5,222.9v-49.6c-11,16.2-20.7,33.6-30.1,51.1C269,224.1,279,223.5,288.5,222.9z"/>
</g>
<g id="Layer_39">
	<path fill="#212F60" d="M412.7,189.8c17.6-14.4,20.3-30.7,20.2-43.3c-0.1-19-6.7-37.4-19-54c-0.4,0-0.8,0.1-1.2,0.1V189.8z"/>
</g>
<g id="Layer_38">
	<path fill="#212F60" d="M407.4,102.1c0.4,0,0.8-0.1,1.2-0.1c-0.4-0.5-0.8-1.1-1.2-1.6V102.1z"/>
</g>
<g id="Layer_37">
</g>
<g id="Layer_36">
</g>
<g id="Layer_35">
</g>
<g id="Layer_34">
</g>
<g id="Layer_33">
</g>
<g id="Layer_32">
</g>
<g id="Layer_31">
</g>
<g id="Layer_30">
</g>
<g id="Layer_54">
	<path fill="#007BAB" d="M623.4,87.9c23.3,0,45,4.3,65.1,13c20.1,8.7,37.7,20.6,52.8,35.7c15.1,15.1,27,32.7,35.7,52.8
		c8.7,20.1,13,41.8,13,65.1v167.4H623.4c-22.8,0-44.4-4.3-64.7-13c-20.3-8.7-38.2-20.7-53.6-36.1c-15.4-15.4-27.4-33.2-36.1-53.6
		c-8.7-20.3-13-41.9-13-64.7c0-23.3,4.3-45,13-65.1c8.7-20.1,20.7-37.7,36.1-52.8c15.4-15.1,33.2-27,53.6-35.7
		C579,92.3,600.6,87.9,623.4,87.9z M723.8,355.7V254.5c0-13.9-2.6-26.9-7.8-39.1c-5.2-12.1-12.4-22.8-21.6-32
		c-9.2-9.2-19.8-16.4-32-21.6c-12.2-5.2-25.2-7.8-39.1-7.8c-13.9,0-27,2.6-39.4,7.8c-12.4,5.2-23.2,12.4-32.4,21.6
		c-9.2,9.2-16.4,19.8-21.6,32c-5.2,12.2-7.8,25.2-7.8,39.1c0,13.9,2.6,27,7.8,39.4c5.2,12.4,12.4,23.2,21.6,32.4
		c9.2,9.2,20,16.4,32.4,21.6c12.4,5.2,25.5,7.8,39.4,7.8H723.8z"/>
</g>
<g id="Layer_53">
	<path fill="#212F60" d="M858.5,137c16.4-16.4,34.8-28.6,55.4-36.8c20.6-8.2,41.5-12.3,62.9-12.3c21.3,0,42.3,4.1,62.9,12.3
		c20.6,8.2,39.1,20.5,55.4,36.8l23.1,23.1l-46.1,46.9l-23.8-23.1c-9.9-9.9-21.1-17.4-33.5-22.3c-12.4-5-25-7.4-37.9-7.4
		c-12.9,0-25.5,2.5-37.9,7.4c-12.4,5-23.6,12.4-33.5,22.3c-9.9,9.4-17.4,20.3-22.3,32.7c-5,12.4-7.4,25-7.4,37.9
		c0,12.9,2.5,25.5,7.4,37.9c5,12.4,12.4,23.6,22.3,33.5c19.8,19.8,43.6,29.8,71.4,29.8c13.4,0,26.3-2.5,38.7-7.4
		c12.4-5,23.3-12.4,32.7-22.3l23.8-23.1l46.1,46.9l-23.1,23.1c-16.4,16.4-34.8,28.6-55.4,36.8c-20.6,8.2-41.5,12.3-62.9,12.3
		c-21.3,0-42.3-4.1-62.9-12.3c-20.6-8.2-39.1-20.5-55.4-36.8c-16.4-16.4-28.5-34.7-36.4-55c-7.9-20.3-11.9-41.3-11.9-62.9
		c0-21.6,4-42.5,11.9-62.9C829.9,171.7,842.1,153.4,858.5,137z"/>
</g>
<g id="Layer_52">
	<path fill="#212F60" d="M1144.1,256c0-23.3,4.3-45,13-65.1c8.7-20.1,20.6-37.7,35.7-52.8c15.1-15.1,32.8-27,53.2-35.7
		c20.3-8.7,41.9-13,64.7-13c23.3,0,45,4.3,65.1,13c20.1,8.7,37.8,20.6,53.2,35.7c15.4,15.1,27.4,32.7,36.1,52.8
		c8.7,20.1,13,41.8,13,65.1c0,22.8-4.3,44.4-13,64.7c-8.7,20.3-20.7,38.2-36.1,53.6c-15.4,15.4-33.1,27.4-53.2,36.1
		c-20.1,8.7-41.8,13-65.1,13c-22.8,0-44.4-4.3-64.7-13c-20.3-8.7-38.1-20.7-53.2-36.1c-15.1-15.4-27-33.2-35.7-53.6
		C1148.4,300.4,1144.1,278.8,1144.1,256z M1209.5,256c0,13.9,2.6,27,7.8,39.4c5.2,12.4,12.4,23.2,21.6,32.4
		c9.2,9.2,20,16.4,32.4,21.6c12.4,5.2,25.5,7.8,39.4,7.8c13.9,0,27-2.6,39.4-7.8c12.4-5.2,23.2-12.4,32.4-21.6
		c9.2-9.2,16.4-20,21.6-32.4c5.2-12.4,7.8-25.5,7.8-39.4c0-13.9-2.6-26.9-7.8-39.1c-5.2-12.1-12.4-22.8-21.6-32
		c-9.2-9.2-20-16.4-32.4-21.6c-12.4-5.2-25.5-7.8-39.4-7.8c-13.9,0-27,2.6-39.4,7.8c-12.4,5.2-23.2,12.4-32.4,21.6
		c-9.2,9.2-16.4,19.8-21.6,32C1212.2,229.1,1209.5,242.1,1209.5,256z"/>
</g>
<g id="Layer_51">
	<path fill="#212F60" d="M1701.2,87.9v66.2h-33.5c-13.9,0-26.9,2.6-39.1,7.8c-12.2,5.2-22.8,12.4-32,21.6
		c-9.2,9.2-16.4,19.8-21.6,32c-5.2,12.2-7.8,25.2-7.8,39.1v167.4h-66.9V254.5c0-23.3,4.3-45,13-65.1c8.7-20.1,20.7-37.7,36.1-52.8
		c15.4-15.1,33.2-27,53.6-35.7c20.3-8.7,41.9-13,64.7-13H1701.2z"/>
</g>
<g id="Layer_50">
	<path fill="#212F60" d="M1733.6,190.2c8.7-20.1,20.6-37.7,35.7-52.8c15.1-15.1,32.8-27,53.2-35.7c20.3-8.7,41.9-13,64.7-13
		c23.3,0,45,4.3,65.1,13c20.1,8.7,37.8,20.6,53.2,35.7c15.4,15.1,27.4,32.7,36.1,52.8c8.7,20.1,13,41.8,13,65.1v167.4h-66.2V255.3
		c0-13.9-2.6-26.9-7.8-39.1c-5.2-12.1-12.4-22.8-21.6-32c-9.2-9.2-20-16.4-32.4-21.6c-12.4-5.2-25.5-7.8-39.4-7.8
		c-13.9,0-26.9,2.6-39.1,7.8c-12.2,5.2-22.8,12.4-32,21.6c-9.2,9.2-16.4,19.8-21.6,32c-5.2,12.2-7.8,25.2-7.8,39.1v167.4h-66.2
		V255.3C1720.6,232,1724.9,210.3,1733.6,190.2z"/>
</g>
<g id="Layer_29">
</g>
<g id="Layer_28">
</g>
<g id="Layer_27">
</g>
<g id="Layer_26">
</g>
<g id="Layer_25">
</g>
<g id="Layer_24">
</g>
<g id="Layer_23">
</g>
<g id="Layer_22">
</g>
<g id="Layer_21">
</g>
<g id="Layer_20">
</g>
<g id="Layer_19">
</g>
<g id="Layer_18">
</g>
<g id="Layer_17">
</g>
<g id="Layer_16">
</g>
<g id="Layer_15">
</g>
<g id="Layer_14">
</g>
<g id="Layer_13">
</g>
<g id="Layer_12">
</g>
<g id="Layer_11">
</g>
<g id="Layer_10">
</g>
<g id="Layer_9">
</g>
<g id="Layer_8">
</g>
<g id="Layer_7">
</g>
<g id="Layer_6">
</g>
<g id="Layer_5">
</g>
<g id="Layer_4">
</g>
<g id="Layer_2">
</g>
</svg>
